<?xml version="1.0" encoding="iso-8859-1"?>
<!-- Generator: Adobe Illustrator 19.0.0, SVG Export Plug-In . SVG Version: 6.00 Build 0)  -->
<svg version="1.1" id="Capa_1" xmlns="http://www.w3.org/2000/svg" xmlns:xlink="http://www.w3.org/1999/xlink" x="0px" y="0px"
	 viewBox="0 0 512 512" style="enable-background:new 0 0 512 512;" xml:space="preserve">
<g>
	<g>
		<path d="M338.833,472.148H173.167c-4.142,0-7.5,3.358-7.5,7.5V504.5c0,4.142,3.358,7.5,7.5,7.5c4.142,0,7.5-3.358,7.5-7.5v-17.352
			h150.666V504.5c0,4.142,3.358,7.5,7.5,7.5c4.142,0,7.5-3.358,7.5-7.5v-24.852C346.333,475.506,342.975,472.148,338.833,472.148z"
			/>
	</g>
</g>
<g>
	<g>
		<path d="M388.533,182.232h-11.159l-14.858-44.572c-1.021-3.063-3.887-5.128-7.115-5.128h-25.633v-25.631
			c0-0.248-0.013-0.496-0.037-0.744c-0.01-0.106-0.031-0.21-0.045-0.315c-0.02-0.137-0.036-0.275-0.063-0.411
			c-0.024-0.122-0.058-0.241-0.088-0.36c-0.029-0.117-0.055-0.235-0.09-0.351c-0.036-0.118-0.08-0.231-0.121-0.347
			c-0.041-0.116-0.079-0.232-0.127-0.346c-0.045-0.108-0.098-0.212-0.147-0.317c-0.055-0.116-0.106-0.233-0.167-0.347
			c-0.055-0.103-0.118-0.2-0.177-0.3c-0.066-0.11-0.128-0.222-0.2-0.329c-0.075-0.112-0.158-0.217-0.238-0.324
			c-0.066-0.088-0.127-0.179-0.198-0.264c-0.157-0.192-0.323-0.376-0.499-0.551L263.5,37.527V7.5c0-4.142-3.358-7.5-7.5-7.5
			c-4.142,0-7.5,3.358-7.5,7.5v30.027l-64.07,64.068c-0.175,0.175-0.341,0.36-0.499,0.552c-0.068,0.083-0.128,0.172-0.192,0.257
			c-0.083,0.11-0.168,0.218-0.244,0.332c-0.07,0.104-0.13,0.212-0.194,0.319c-0.062,0.103-0.126,0.204-0.183,0.311
			c-0.059,0.11-0.108,0.222-0.161,0.334c-0.052,0.11-0.107,0.218-0.153,0.331c-0.045,0.109-0.082,0.221-0.122,0.332
			c-0.043,0.12-0.089,0.238-0.126,0.361c-0.034,0.111-0.058,0.225-0.087,0.337c-0.032,0.124-0.066,0.248-0.091,0.374
			c-0.025,0.128-0.04,0.257-0.059,0.386c-0.016,0.113-0.038,0.225-0.049,0.34c-0.023,0.239-0.036,0.479-0.036,0.719
			c0,0.007-0.001,0.013-0.001,0.02v25.633h-25.631c-3.228,0-6.094,2.066-7.115,5.128l-14.858,44.572h-11.16
			c-4.142,0-7.5,3.358-7.5,7.5v64.688c0,4.142,3.358,7.5,7.5,7.5c4.142,0,7.5-3.358,7.5-7.5v-57.188h8.893
			c0.028,0.001,0.055,0,0.083,0H371.93c0.013,0,0.025,0.003,0.037,0.003c0.012,0,0.024-0.003,0.036-0.003h9.029v250.065h-17.302
			c-0.016,0-0.032-0.002-0.048-0.002s-0.032,0.002-0.048,0.002H148.366c-0.016,0-0.032-0.002-0.048-0.002s-0.032,0.002-0.048,0.002
			h-17.302V284.39c0-4.142-3.358-7.5-7.5-7.5c-4.142,0-7.5,3.358-7.5,7.5v170.408c0,4.142,3.358,7.5,7.5,7.5h17.35V504.5
			c0,4.142,3.358,7.5,7.5,7.5c4.142,0,7.5-3.358,7.5-7.5v-42.202h200.365V504.5c0,4.142,3.358,7.5,7.5,7.5
			c4.142,0,7.5-3.358,7.5-7.5v-42.202h17.35c4.142,0,7.5-3.358,7.5-7.5V189.732C396.033,185.59,392.674,182.232,388.533,182.232z
			 M256,51.24l48.16,48.159h-96.321L256,51.24z M197.232,114.399h117.535v18.133H197.232V114.399z M329.766,182.232v-17.35
			c0-4.142-3.358-7.5-7.5-7.5c-4.142,0-7.5,3.358-7.5,7.5v17.35H263.5v-17.35c0-4.142-3.358-7.5-7.5-7.5c-4.142,0-7.5,3.358-7.5,7.5
			v17.35h-51.267v-17.35c0-4.142-3.358-7.5-7.5-7.5c-4.142,0-7.5,3.358-7.5,7.5v17.35h-31.795l11.568-34.7h187.988l11.567,34.7
			H329.766z"/>
	</g>
</g>
<g>
	<g>
		<path d="M255.999,215.364c-58.945,0-106.9,47.955-106.9,106.9s47.955,106.9,106.9,106.9s106.9-47.955,106.9-106.9
			S314.944,215.364,255.999,215.364z M255.999,414.164c-50.674,0-91.9-41.227-91.9-91.9c0-50.674,41.226-91.9,91.9-91.9
			s91.9,41.226,91.9,91.9C347.898,372.938,306.673,414.164,255.999,414.164z"/>
	</g>
</g>
<g>
	<g>
		<path d="M164.884,215.364h-16.566c-4.142,0-7.5,3.358-7.5,7.5c0,4.142,3.358,7.5,7.5,7.5h16.566c4.142,0,7.5-3.358,7.5-7.5
			C172.384,218.722,169.026,215.364,164.884,215.364z"/>
	</g>
</g>
<g>
	<g>
		<path d="M363.683,215.364h-16.566c-4.142,0-7.5,3.358-7.5,7.5c0,4.142,3.358,7.5,7.5,7.5h16.566c4.142,0,7.5-3.358,7.5-7.5
			C371.183,218.722,367.825,215.364,363.683,215.364z"/>
	</g>
</g>
<g>
	<g>
		<path d="M164.883,414.165h-16.566c-4.142,0-7.5,3.358-7.5,7.5c0,4.142,3.358,7.5,7.5,7.5h16.566c4.142,0,7.5-3.358,7.5-7.5
			C172.383,417.523,169.025,414.165,164.883,414.165z"/>
	</g>
</g>
<g>
	<g>
		<path d="M363.683,414.165h-16.566c-4.142,0-7.5,3.358-7.5,7.5c0,4.142,3.358,7.5,7.5,7.5h16.566c4.142,0,7.5-3.358,7.5-7.5
			C371.183,417.523,367.825,414.165,363.683,414.165z"/>
	</g>
</g>
<g>
	<g>
		<path d="M255.999,240.213c-45.243,0-82.051,36.808-82.051,82.051c0,45.243,36.808,82.051,82.051,82.051
			c45.243,0,82.051-36.808,82.051-82.051C338.049,277.021,301.242,240.213,255.999,240.213z M255.999,389.315
			c-36.972,0-67.051-30.079-67.051-67.051s30.079-67.051,67.051-67.051c36.972,0,67.051,30.079,67.051,67.051
			S292.971,389.315,255.999,389.315z"/>
	</g>
</g>
<g>
	<g>
		<path d="M289.132,314.764H263.5v-42.199c0-4.142-3.358-7.5-7.5-7.5c-4.142,0-7.5,3.358-7.5,7.5v49.699c0,4.142,3.358,7.5,7.5,7.5
			h33.132c4.142,0,7.5-3.358,7.5-7.5C296.632,318.122,293.273,314.764,289.132,314.764z"/>
	</g>
</g>
<g>
</g>
<g>
</g>
<g>
</g>
<g>
</g>
<g>
</g>
<g>
</g>
<g>
</g>
<g>
</g>
<g>
</g>
<g>
</g>
<g>
</g>
<g>
</g>
<g>
</g>
<g>
</g>
<g>
</g>
</svg>
