<?xml version="1.0" encoding="UTF-8"?>
<!DOCTYPE svg PUBLIC "-//W3C//DTD SVG 1.1//EN" "http://www.w3.org/Graphics/SVG/1.1/DTD/svg11.dtd">
<!-- Creator: CorelDRAW X8 -->
<svg xmlns="http://www.w3.org/2000/svg" xml:space="preserve" width="45.3192mm" height="65.8284mm" version="1.1" style="shape-rendering:geometricPrecision; text-rendering:geometricPrecision; image-rendering:optimizeQuality; fill-rule:evenodd; clip-rule:evenodd"
viewBox="0 0 1593 2315"
 xmlns:xlink="http://www.w3.org/1999/xlink">
 <defs>
  <style type="text/css">
   <![CDATA[
    .fil1 {fill:#2B2A29}
    .fil0 {fill:#AE2220}
    .fil2 {fill:#2B2A29;fill-rule:nonzero}
    .fil3 {fill:#AE2220;fill-rule:nonzero}
   ]]>
  </style>
 </defs>
 <g id="Слой_x0020_1">
  <metadata id="CorelCorpID_0Corel-Layer"/>
  <g id="_721820832">
   <polygon class="fil0" points="520,468 630,468 630,358 520,358 "/>
   <polygon class="fil0" points="410,578 520,578 520,468 410,468 "/>
   <polygon class="fil0" points="198,379 308,379 308,269 198,269 "/>
   <polygon class="fil0" points="300,687 410,687 410,578 300,578 "/>
   <polygon class="fil1" points="328,434 438,434 438,324 328,324 "/>
   <polygon class="fil1" points="273,501 383,501 383,392 273,392 "/>
   <polygon class="fil0" points="690,861 800,861 800,751 690,751 "/>
   <polygon class="fil0" points="537,590 647,590 647,480 537,480 "/>
   <polygon class="fil0" points="538,590 428,590 428,700 647,700 647,590 538,590 "/>
   <polygon class="fil1" points="665,507 665,727 775,727 775,507 "/>
   <polygon class="fil1" points="665,468 775,468 775,358 665,358 "/>
   <polygon class="fil2" points="660,109 769,109 769,0 660,0 "/>
   <polygon class="fil1" points="560,727 341,727 341,836 555,836 555,836 665,836 665,727 "/>
   <polygon class="fil1" points="1300,836 1410,836 1410,727 1300,727 "/>
   <polygon class="fil0" points="1081,468 1191,468 1191,358 1081,358 "/>
   <polygon class="fil0" points="1191,578 1300,578 1300,468 1191,468 "/>
   <polygon class="fil0" points="1458,161 1568,161 1568,52 1458,52 "/>
   <polygon class="fil0" points="1300,687 1410,687 1410,578 1300,578 "/>
   <polygon class="fil1" points="1315,216 1425,216 1425,106 1315,106 "/>
   <polygon class="fil1" points="1484,578 1593,578 1593,468 1484,468 "/>
   <polygon class="fil0" points="911,861 1021,861 1021,751 911,751 "/>
   <polygon class="fil0" points="1063,590 1173,590 1173,480 1063,480 "/>
   <polygon class="fil0" points="1173,700 1283,700 1283,590 1173,590 "/>
   <polygon class="fil0" points="1063,700 1173,700 1173,590 1063,590 "/>
   <polygon class="fil1" points="776,219 886,219 886,109 776,109 "/>
   <polygon class="fil1" points="936,288 936,727 1046,727 1046,288 "/>
   <polygon class="fil1" points="1155,727 1046,727 1046,836 1265,836 1265,727 "/>
   <polygon class="fil1" points="300,1113 410,1113 410,1003 300,1003 "/>
   <polygon class="fil1" points="163,1290 273,1290 273,1181 163,1181 "/>
   <polygon class="fil3" points="0,1003 110,1003 110,893 0,893 "/>
   <polygon class="fil1" points="187,1003 297,1003 297,893 187,893 "/>
   <polygon class="fil0" points="520,1481 630,1481 630,1371 520,1371 "/>
   <polygon class="fil0" points="410,1371 520,1371 520,1262 410,1262 "/>
   <polygon class="fil0" points="198,1570 308,1570 308,1460 198,1460 "/>
   <polygon class="fil0" points="300,1262 410,1262 410,1152 300,1152 "/>
   <polygon class="fil1" points="328,1515 438,1515 438,1405 328,1405 "/>
   <polygon class="fil1" points="273,1447 383,1447 383,1338 273,1338 "/>
   <polygon class="fil0" points="690,1088 800,1088 800,978 690,978 "/>
   <polygon class="fil0" points="537,1359 647,1359 647,1249 537,1249 "/>
   <polygon class="fil0" points="428,1249 537,1249 537,1139 428,1139 "/>
   <polygon class="fil0" points="538,1249 647,1249 647,1139 538,1139 "/>
   <polygon class="fil1" points="775,2097 885,2097 885,1987 775,1987 "/>
   <polygon class="fil2" points="775,2315 885,2315 885,2205 775,2205 "/>
   <polygon class="fil1" points="560,1003 450,1003 450,1113 665,1113 665,1003 "/>
   <polygon class="fil0" points="1081,1481 1191,1481 1191,1372 1081,1372 "/>
   <polygon class="fil0" points="1191,1372 1300,1372 1300,1262 1191,1262 "/>
   <polygon class="fil0" points="1458,1788 1568,1788 1568,1678 1458,1678 "/>
   <polygon class="fil0" points="1300,1262 1410,1262 1410,1152 1300,1152 "/>
   <polygon class="fil1" points="1315,1733 1425,1733 1425,1623 1315,1623 "/>
   <polygon class="fil1" points="1484,1371 1593,1371 1593,1262 1484,1262 "/>
   <polygon class="fil0" points="911,1088 1021,1088 1021,978 911,978 "/>
   <polygon class="fil0" points="1063,1359 1173,1359 1173,1249 1063,1249 "/>
   <polygon class="fil0" points="1173,1249 1283,1249 1283,1139 1173,1139 "/>
   <polygon class="fil0" points="1063,1249 1173,1249 1173,1139 1063,1139 "/>
   <polygon class="fil1" points="886,2196 996,2196 996,2087 886,2087 "/>
   <polygon class="fil1" points="1260,1003 1260,1003 1155,1003 1155,1003 1046,1003 1046,1113 1370,1113 1370,1003 "/>
   <polygon class="fil1" points="665,1113 665,1548 665,1548 665,1987 775,1987 775,1548 775,1548 775,1113 "/>
   <polygon class="fil1" points="936,1113 936,1536 935,1536 935,1866 1045,1866 1045,1536 1046,1536 1046,1113 "/>
   <polygon class="fil0" points="520,1713 630,1713 630,1603 520,1603 "/>
   <polygon class="fil0" points="936,2029 1046,2029 1046,1919 936,1919 "/>
  </g>
 </g>
</svg>
