<svg height="512pt" viewBox="-84 0 512 512.00019" width="512pt" xmlns="http://www.w3.org/2000/svg"><path fill="#fffffff" d="m341.648438 393.894531-54.585938-109.300781v-77.210938c0-4.726562-2.226562-9.175781-6.011719-12.007812l-257.0625-192.382812c-4.550781-3.40625-10.636719-3.949219-15.714843-1.398438-5.082032 2.546875-8.2851568 7.75-8.273438 13.433594l.554688 321.328125c.007812 4.648437 2.167968 9.03125 5.851562 11.863281l61 46.941406 54.675781 108.582032c2.636719 5.234374 7.921875 8.257812 13.40625 8.257812 2.257813 0 4.546875-.511719 6.699219-1.585938l192.75-96.402343c7.40625-3.703125 10.410156-12.707031 6.710938-20.117188zm-311.539063-315.132812 63.964844 127.9375c-8.488281 8.527343-13.742188 20.277343-13.742188 33.230469 0 25.992187 21.144531 47.132812 47.132813 47.132812 25.988281 0 47.132812-21.140625 47.132812-47.132812 0-25.988282-21.144531-47.132813-47.132812-47.132813-2.230469 0-4.417969.167969-6.566406.46875l-64.132813-128.273437 200.296875 149.902343v64l-95.039062 47.929688-81.089844 40.890625-50.394532-38.777344zm97.355469 144.039062c9.449218 0 17.132812 7.683594 17.132812 17.132813 0 9.445312-7.683594 17.132812-17.132812 17.132812-9.445313 0-17.132813-7.6875-17.132813-17.132812 0-9.449219 7.6875-17.132813 17.132813-17.132813zm14.683594 254.089844-42.742188-84.886719 165.96875-83.699218 42.734375 85.582031zm0 0"/></svg>